
<svg width="91px" height="55px" viewBox="0 0 91 55" version="1.1" xmlns="http://www.w3.org/2000/svg" xmlns:xlink="http://www.w3.org/1999/xlink">
    <defs>
        <polygon id="path-1" points="0 0.190987454 90.7696011 0.190987454 90.7696011 11 0 11"></polygon>
    </defs>
    <g id="Page-1" stroke="none" stroke-width="1" fill="none" fill-rule="evenodd">
        <g id="Desktop-HD" transform="translate(-675.000000, -370.000000)">
            <g id="Group-10" transform="translate(675.000000, 370.000000)">
                <g id="Group-3" transform="translate(0.000000, 44.000000)">
                    <mask id="mask-2" fill="white">
                        <use xlink:href="#path-1"></use>
                    </mask>
                    <g id="Clip-2"></g>
                    <path d="M0,3.18828889 C0.324423823,2.15697778 1.18249584,1.92304444 2.14845706,1.67371111 C8.23562604,0.103644444 14.4100139,-0.0618444444 20.6398587,0.451488889 C30.6750665,1.2782 40.3543407,3.88275556 50.1324294,5.9906 C58.3778864,7.76795556 66.6664488,9.20235556 75.1473463,9.33435556 C80.3885429,9.41624444 85.5226066,8.74011111 90.6158338,7.45408889 C91.0083186,8.33433333 90.6239003,8.64917778 89.7597784,8.8528 C81.8238726,10.7237778 73.7775568,11.2879556 65.6392327,10.8692222 C54.7693961,10.3101778 44.2557452,7.7616 33.6848726,5.52517778 C26.6216593,4.03088889 19.5269363,2.81771111 12.2434072,3.11642222 C8.06698615,3.28777778 3.99870637,4.00033333 0,5.14384444 L0,3.18828889 Z" id="Fill-1" fill="#231F20" mask="url(#mask-2)"></path>
                </g>
                <path d="M8.01343737,1.97840365 C7.73145475,1.82199335 7.41406624,1.64603176 7.16622502,1.50842077 C6.82658138,1.81998809 6.46316522,2.15336262 6.1819413,2.41128922 C6.26514514,2.84417479 6.34025621,3.23419791 6.39715853,3.52947249 C6.79648638,3.46029101 7.22869112,3.38534441 7.49904038,3.33847145 C7.69250827,2.82662876 7.86523843,2.37018138 8.01343737,1.97840365 Z M7.50510996,7.29810855 C7.21225268,7.11813644 6.87614963,6.91159463 6.60377718,6.74415539 C6.28790607,7.07502334 5.90678696,7.47381948 5.57321291,7.82298543 C5.66602692,8.18769215 5.76516341,8.57671264 5.83749258,8.86171026 C6.27652561,8.78124919 6.70493687,8.70279338 6.96592885,8.65516845 C7.17735259,8.12327316 7.35842842,7.66707644 7.50510996,7.29810855 Z M33.4745709,16.3571226 C34.1409603,15.7362439 34.6935451,15.2211426 35.2203342,14.7301045 C34.7145357,14.4280622 34.3255768,14.1959533 34.0428354,14.0272608 C33.6483127,14.3300551 33.278574,14.6137994 32.9857168,14.8383886 C33.117983,15.2497176 33.2482261,15.6540282 33.4745709,16.3571226 Z M34.0878515,9.26802613 C33.7368274,9.5532744 33.3766989,9.84604241 33.0590575,10.1044703 C33.1680571,10.4957467 33.2899545,10.9323922 33.4007244,11.329935 C33.8218015,11.2717825 34.2658926,11.2103714 34.7180763,11.1479576 C34.8445259,10.7526707 34.9942423,10.2859464 35.1110817,9.92123967 C34.7355264,9.6813604 34.3938595,9.46328835 34.0878515,9.26802613 Z M9.09963947,4.95070072 C8.93373759,4.81559631 8.7678357,4.6804919 8.60193382,4.54513683 C8.69196594,4.97351056 8.78199806,5.40163363 8.84749896,5.71269963 C9.27464572,5.66933588 9.67296197,5.62872936 10.0075476,5.59463993 C10.1656096,5.17829776 10.3365695,4.7271142 10.46833,4.38020417 C10.1691502,4.1185177 9.87022335,3.85733255 9.75287812,3.75456296 C9.56067472,4.10623548 9.33028354,4.52859343 9.09963947,4.95070072 Z M30.2624981,23.3329218 L31.6382698,23.3329218 C31.7692716,22.9393895 31.9205053,22.485198 32.0396208,22.1277604 C31.6817684,21.8665752 31.3196168,21.6018809 31.0168964,21.3808009 C30.6322367,21.6462472 30.2549111,21.9069311 29.9643299,22.1074571 C30.0718121,22.5491157 30.1810645,22.998294 30.2624981,23.3329218 Z M11.0692185,6.86346838 C11.1473644,7.33846441 11.2191877,7.77611247 11.2695147,8.08191466 C11.7457239,8.11199357 12.1865272,8.13981656 12.5023983,8.1596185 C12.6971307,7.68161458 12.8809884,7.22967904 13.065099,6.7777435 C12.7699657,7.07126348 12.4748323,7.36503411 12.1796989,7.65855409 C12.0529964,7.1750357 11.9262939,6.69176797 11.7995914,6.20824958 C11.8987279,6.13706284 11.9981173,6.06612676 12.0972538,5.99494002 C11.7449652,6.29247051 11.3926766,6.59000101 11.0692185,6.86346838 Z M13.4168818,1.72975138 C13.1207369,1.47082214 12.7810932,1.17404362 12.5350223,0.959230112 C12.167054,1.21214357 11.8233639,1.44826297 11.5292422,1.65029294 C11.6089054,2.0678884 11.6996962,2.54313508 11.7651971,2.88653591 C12.2034714,2.91736679 12.6119037,2.94594175 12.9760785,2.97150881 C13.1106209,2.59251462 13.2656481,2.15561853 13.4168818,1.72975138 Z M15.5384533,5.91974276 C15.6805827,5.54902026 15.8593824,5.08279724 16.0007531,4.71433066 C15.6681906,4.36867392 15.3487789,4.03680334 15.0860166,3.76358663 C14.6914939,3.98792512 14.3078458,4.20624784 14.013724,4.37368707 C14.0923756,4.89254817 14.1672338,5.38433826 14.2304586,5.80218437 C14.6315567,5.8380284 15.0827289,5.87863492 15.5384533,5.91974276 Z M35.1457289,5.25324437 C34.7893939,5.00258683 34.4330589,4.75192929 34.1713082,4.56794666 C33.7745094,4.86021335 33.4072997,5.13092349 33.130628,5.33495872 C33.2449384,5.79666991 33.3524206,6.23156073 33.4477636,6.61657071 C33.9039938,6.58248128 34.3829849,6.54663725 34.7610692,6.51831295 C34.8933355,6.08392344 35.0167503,5.67735692 35.1457289,5.25324437 Z M35.0658127,19.2434441 C34.2378207,18.732604 33.4942971,18.9118242 32.9535986,19.5557634 C33.0749902,20.0415377 33.1741267,20.4380779 33.2575834,20.7707005 C33.7297462,20.7303446 34.2193591,20.6884848 34.5175273,20.6629177 C34.7208582,20.1367876 34.8953587,19.6846014 35.0658127,19.2434441 Z M32.8918912,24.3731506 C33.0183408,24.8318539 33.1318925,25.2429322 33.2082681,25.5201595 C33.6796722,25.4582471 34.1356495,25.3980892 34.4811098,25.3524696 C34.6424595,24.8940169 34.794199,24.4631366 34.9062333,24.1440496 C34.5402882,23.921215 34.194575,23.7109134 33.8903372,23.5256775 C33.574719,23.7933797 33.2140847,24.0996832 32.8918912,24.3731506 Z M28.6464721,4.2182794 C28.2873553,4.43309291 27.9064891,4.66068995 27.6293115,4.82662524 C27.725919,5.35701659 27.8111461,5.8262475 27.8733593,6.16789372 C28.360696,6.24685084 28.8017523,6.31828824 29.2187831,6.38571512 C29.3735574,5.99769725 29.5538745,5.54500974 29.7154771,5.1396965 C29.364453,4.83715286 28.9838397,4.50904214 28.6464721,4.2182794 Z M26.4480193,8.35713664 C26.5939422,7.98591283 26.7626259,7.55678713 26.9310568,7.12741077 C26.7944912,7.28081318 26.6579257,7.43396493 26.5213601,7.58711669 C26.1910737,7.20085342 25.8607874,6.81459016 25.530501,6.42857756 C25.6602383,6.33834084 25.7899756,6.24810413 25.9197129,6.15811807 C25.507993,6.32956783 25.0962731,6.50101758 24.750307,6.64489501 C24.8711928,7.1366851 24.9963779,7.64551989 25.1220688,8.15711193 C25.4895313,8.21250724 25.9374158,8.28018478 26.4480193,8.35713664 Z M30.3960289,18.5200465 L31.7363947,18.5200465 C31.863603,18.1433082 32.0196418,17.6820983 32.1321819,17.3492251 C31.7422114,17.0356525 31.4002916,16.7606812 31.1466337,16.5568966 C30.7399718,16.8068022 30.355565,17.0429216 30.0563852,17.2266536 C30.174995,17.6785891 30.2882938,18.1097201 30.3960289,18.5200465 Z M31.9652685,9.03065344 C32.0909594,8.63586782 32.2310655,8.19546253 32.3714246,7.75355329 C32.0479665,7.51217008 31.6807568,7.2382014 31.324169,6.97175244 C30.9822492,7.18080082 30.5930374,7.41917614 30.2422662,7.63398965 C30.375544,8.09795675 30.5121096,8.57245146 30.6271787,8.97174892 C31.0783509,8.99155086 31.5330637,9.01160347 31.9652685,9.03065344 Z M9.09306409,8.85694777 C8.77567558,9.14044144 8.39910866,9.47682385 8.07084549,9.77009317 C8.15683122,10.2348122 8.24231115,10.6975261 8.30174246,11.0183677 C8.75417915,10.9805184 9.19649986,10.9434211 9.55966312,10.9130915 C9.73037009,10.4373435 9.90765244,9.9440495 10.0614152,9.51592643 C9.78651371,9.32893591 9.45850344,9.10560004 9.09306409,8.85694777 Z M17.5846608,2.08919429 C17.7138923,1.96411618 17.8428709,1.83878741 17.9721024,1.7137093 C17.5861782,1.91072612 17.200254,2.10749229 16.9296518,2.24585525 C17.0169021,2.74165585 17.0978298,3.19985783 17.1706648,3.61444539 C17.6182964,3.73250509 18.0848954,3.8558286 18.5021791,3.96586726 C18.6531599,3.52972315 18.8137509,3.06600671 18.9743419,2.60229026 C18.8582612,2.73839731 18.7419276,2.874755 18.6255939,3.01086205 C18.2786162,2.70355591 17.9316385,2.39650043 17.5846608,2.08919429 Z M24.6016022,11.6066609 C24.6982097,12.0811557 24.8034158,12.5967582 24.8828261,12.985528 C25.4159377,13.0850391 25.8929056,13.1742732 26.2059948,13.232927 C26.4019917,12.7812422 26.5775037,12.3764302 26.7530158,11.9716183 C26.5909074,12.1505878 26.4285461,12.3295573 26.2664377,12.5085268 C25.9710514,12.054586 25.6754123,11.6003945 25.3881188,11.1589866 C25.294546,11.212126 24.9268306,11.421425 24.6016022,11.6066609 Z M5.33346446,13.636235 C5.21181994,13.4738089 5.08992252,13.3116335 4.968278,13.1492074 C5.06918479,13.5943752 5.17009157,14.0397936 5.24242075,14.3591313 C5.67588999,14.2335519 6.11340562,14.1064686 6.50590519,13.99267 C6.66978388,13.5344681 6.85085971,13.0278892 7.00588692,12.5950036 C6.70873035,12.4097677 6.35972945,12.1916956 6.01047564,11.9738742 C6.16879054,12.125522 6.32685255,12.2771699 6.48516745,12.4288177 C6.10126646,12.831123 5.71736546,13.233679 5.33346446,13.636235 Z M31.838566,13.8044262 C31.9832243,13.3572532 32.1311703,12.8998032 32.254838,12.5175504 C31.891169,12.2413258 31.5267412,11.9645999 31.2670137,11.7673324 C30.8454308,12.0137288 30.4615298,12.2380673 30.1411065,12.4250578 C30.2842474,12.9068216 30.4220775,13.3710393 30.5153973,13.6851132 C31.0270124,13.7312342 31.4726208,13.7713394 31.838566,13.8044262 Z M19.6387082,6.81032898 C20.1182051,6.92513013 20.587586,7.03717405 21.0053755,7.13718641 C21.1626788,6.7110686 21.3293394,6.25963438 21.4669165,5.88740793 C21.1265142,5.52570911 20.7830771,5.16100239 20.4550668,4.81258842 C20.073189,5.00835195 19.6753785,5.21238719 19.3701292,5.36904815 C19.4695186,5.90219673 19.5623326,6.40025325 19.6387082,6.81032898 Z M24.3418747,16.5591525 C24.4607374,17.0120907 24.5892102,17.5021262 24.6921401,17.8936533 C25.1936393,17.9843913 25.6749065,18.0711188 26.0610835,18.1408016 C26.2100412,17.7121772 26.3572285,17.2888166 26.5036572,16.8679626 C26.1781759,16.5676749 25.788964,16.2084827 25.4945893,15.9367699 C25.099055,16.1503301 24.740191,16.3440884 24.3418747,16.5591525 Z M27.7269306,11.010096 C28.1806318,11.0652407 28.6699918,11.1248972 29.0855052,11.17553 C29.2407853,10.7240958 29.3968241,10.2704056 29.5528629,9.81671547 C29.3396689,10.0282704 29.1264748,10.2398254 28.9132808,10.4513804 C28.6854186,10.0443125 28.4578093,9.63699402 28.2299472,9.22992618 L28.5445538,8.94066738 C28.1586296,9.17678678 27.7727054,9.41315684 27.3991733,9.64175651 C27.4993213,10.0603546 27.6166666,10.5496381 27.7269306,11.010096 Z M29.2104374,19.5903541 C28.8472741,19.2848026 28.4669137,18.9647129 28.1796202,18.7230791 C27.7775105,18.9762432 27.4034725,19.2121119 27.1376755,19.3793005 C27.2494569,19.9039267 27.3473289,20.3623793 27.4151059,20.6807144 C27.9598508,20.7353578 28.4231621,20.7817294 28.7268941,20.8123096 C28.9072112,20.3568649 29.0695725,19.9465385 29.2104374,19.5903541 Z M21.8867292,8.40375894 C22.0169723,8.94843777 22.1353291,9.44373706 22.2402823,9.88238775 C22.7099161,9.98691194 23.1856196,10.0926894 23.6051793,10.185934 C23.7736102,9.77435435 23.9508926,9.34171944 24.127922,8.90908453 C24.0211985,9.02789621 23.9144751,9.14670788 23.8077516,9.26577021 L22.670211,8.24258615 L23.1082324,7.85607222 C22.6929719,8.04231077 22.2777114,8.22829867 21.8867292,8.40375894 Z M17.6691291,6.65943315 C17.2245323,6.89505123 16.8325385,7.10259567 16.5199551,7.26802964 C16.6173213,7.78313088 16.7146875,8.29722949 16.7796826,8.63987834 C17.3183579,8.77448144 17.782428,8.89028522 18.1668348,8.98628706 C18.321862,8.55189755 18.4854878,8.09344491 18.6369744,7.6690817 C18.3286903,7.34773874 17.9850002,6.98879715 17.6691291,6.65943315 Z M27.2158213,14.4654101 C27.3501108,14.9529391 27.4806068,15.4276844 27.5936527,15.8387628 C28.0276278,15.8866384 28.4825935,15.9370205 28.930478,15.9866507 C29.0751363,15.5605329 29.2321867,15.0973178 29.3892371,14.633852 C29.2020917,14.8150774 29.0149463,14.9963028 28.8278009,15.1772775 C28.5812242,14.7902623 28.3343945,14.4032471 28.0594931,13.9716148 C27.9891871,14.0127226 27.6009868,14.240069 27.2158213,14.4654101 Z M25.8481424,23.0744939 C26.0044341,22.6508826 26.1726121,22.1956886 26.3205581,21.7956391 C25.9649818,21.4742962 25.6015657,21.1459348 25.257117,20.8343675 C24.9078632,21.0298804 24.5049947,21.2552215 24.1342445,21.4625153 C24.2553832,21.9079337 24.3970068,22.429552 24.5044889,22.8253403 C24.9875264,22.914825 25.4366754,22.9980433 25.8481424,23.0744939 Z M17.4966519,19.1131022 C17.6696349,18.6481325 17.8403419,18.1891785 18.0113018,17.7299739 C17.7288133,18.029259 17.4465778,18.3287948 17.1643423,18.6280798 C16.98706,18.0691135 16.8097776,17.5103979 16.6223793,16.9193474 C16.5156558,16.9840171 16.098625,17.2356772 15.7860416,17.4244224 C15.8864426,17.9796288 15.9759689,18.4749281 16.0553793,18.915584 C16.5169203,18.9790004 17.0060274,19.045926 17.4966519,19.1131022 Z M20.7198523,12.1300339 C20.8675454,11.7207101 21.0301596,11.2700279 21.1874629,10.8333824 C20.8766498,10.4997573 20.5109575,10.1072276 20.151082,9.72121495 C19.8073919,9.93302057 19.4204561,10.1713959 19.0600748,10.3937291 C19.1463134,10.8566936 19.2444383,11.3845784 19.3261247,11.8229784 C19.8109325,11.9297585 20.2891649,12.0350347 20.7198523,12.1300339 Z M10.8013982,13.3329394 L12.164525,13.3329394 C12.3127239,12.9078242 12.4877302,12.4070105 12.6394697,11.9723703 C12.3134826,11.7146943 11.9606882,11.4359632 11.6362185,11.1792898 C11.2839299,11.441227 10.8790383,11.7422667 10.5345896,11.998188 C10.6322087,12.4864689 10.7288162,12.9699873 10.8013982,13.3329394 Z M22.2969317,13.3271743 C22.4633394,13.1602364 22.6297471,12.9932984 22.7961548,12.8263605 C22.3907573,13.0266359 21.985107,13.2269113 21.6550735,13.3900893 C21.7714072,13.9370241 21.8829357,14.4613996 21.9618403,14.8316208 C22.479525,14.9384009 22.9324674,15.0318962 23.3646722,15.1208796 C23.5090776,14.7280992 23.6696686,14.2909525 23.8302596,13.8540564 C23.7586892,13.9600845 23.6868658,14.0661127 23.6150424,14.1718902 C23.1757565,13.8904018 22.7364706,13.6089133 22.2969317,13.3271743 Z M7.53065278,15.073756 C7.61335082,15.594873 7.68770319,16.0626 7.74384681,16.4147738 C8.20968715,16.3410805 8.68033258,16.2668859 9.10798514,16.199459 C9.2807153,15.7279722 9.47468899,15.1973301 9.61605965,14.8113175 C9.22406588,14.5165443 8.88973312,14.2648841 8.63253463,14.0716272 C8.24863363,14.4207931 7.87105511,14.7641939 7.53065278,15.073756 Z M13.8538917,19.0687358 C13.4844059,19.3384433 13.0812846,19.6324646 12.7193858,19.896407 C12.7998078,20.3696484 12.8890812,20.8945253 12.962422,21.3266589 C13.434079,21.3479648 13.9527753,21.3712759 14.4112815,21.3920805 C14.5885639,20.939393 14.7924006,20.4190279 14.9509684,20.014216 C14.5771834,19.6921211 14.2329876,19.3955932 13.8538917,19.0687358 Z M23.0632163,20.0673554 C23.9036004,19.0654772 23.252132,18.3949683 22.5865013,17.7806067 C22.1778162,17.991911 21.7471289,18.2144949 21.400404,18.3937151 C21.5180022,18.9416524 21.6285191,19.4575056 21.7096998,19.8362492 C22.2018416,19.9202194 22.6557957,19.9979233 23.0632163,20.0673554 Z M5.52920845,17.3843172 C5.20701486,17.7367416 4.78391448,18.1989541 4.42150992,18.5949931 C4.50142607,19.045926 4.58184801,19.4991148 4.64279672,19.8427663 C5.09953269,19.6903665 5.59572094,19.5246819 5.99656618,19.3910814 C6.17587172,18.8819959 6.35365987,18.376921 6.52967771,17.8771099 C6.27703141,17.7527837 5.92297251,17.5783261 5.52920845,17.3843172 Z M15.3024983,14.8807497 C14.9765113,14.5726916 14.6103132,14.2267842 14.2663703,13.901932 C13.8867686,14.1475764 13.4697378,14.4175346 13.1007578,14.6564112 C13.2054581,15.1562223 13.3152164,15.6798459 13.4009492,16.0899216 C13.8984019,16.1468209 14.3556437,16.1992083 14.7650875,16.2458306 C14.9474279,15.7823648 15.132803,15.3118806 15.3024983,14.8807497 Z M24.2275643,4.33232858 C23.7407333,3.98366395 23.319909,3.68212293 22.8990847,3.38058191 C23.0563881,3.23520054 23.2134385,3.08956851 23.3707418,2.94393648 C22.9671146,3.15248356 22.5634875,3.36103063 22.185909,3.55629285 C22.2893448,4.00296458 22.4094719,4.5210737 22.5106316,4.95796979 C22.981277,5.08881302 23.4299202,5.21364048 23.8623778,5.33395609 C24.0158877,4.91310209 24.1749613,4.47670732 24.2275643,4.33232858 Z M15.4147856,22.6092735 C15.5245438,23.0988077 15.639613,23.6136582 15.7453249,24.0861477 C16.1995318,24.1242476 16.7167107,24.1678621 17.0818972,24.1986929 C17.3021724,23.7036443 17.4969048,23.2659962 17.6582545,22.9030441 C17.2912977,22.5568861 16.9253526,22.2117306 16.5846973,21.8903877 C16.1894159,22.1332748 15.7673271,22.3927054 15.4147856,22.6092735 Z M20.0994905,22.157338 C20.2843598,21.698384 20.4664473,21.2466991 20.6083237,20.8952773 C20.2393438,20.5047528 19.8911016,20.1360356 19.5866109,19.81369 C19.1832367,20.0199811 18.7487558,20.2420637 18.3653606,20.4380779 C18.4862465,20.9464114 18.6175012,21.49861 18.7158789,21.9116936 C19.2095382,21.9994237 19.654135,22.0781302 20.0994905,22.157338 Z M16.1494578,12.3430928 C16.2453066,12.839144 16.3459605,13.3600104 16.4352339,13.8229749 C16.8823597,13.8873939 17.3679262,13.9570767 17.7950729,14.0187384 C17.9860118,13.5705627 18.1799855,13.114366 18.3742121,12.65842 C18.2199436,12.8353842 18.0654222,13.0125991 17.9111537,13.1898139 C17.6104565,12.7326146 17.3097594,12.2754152 17.0305586,11.8505507 C16.8861532,11.9315131 16.4858137,12.1550996 16.1494578,12.3430928 Z M7.20188381,21.8202036 C7.70414164,21.7289642 8.19830669,21.6392288 8.65074337,21.5570132 C8.81993294,21.0832704 9.00505516,20.5654119 9.18031431,20.0743738 C8.83637139,19.8412623 8.44361892,19.5755653 8.14620945,19.3740367 C7.72766126,19.7525296 7.32099934,20.1202442 6.94519111,20.4598851 C7.02510726,20.8832457 7.11766837,21.3737825 7.20188381,21.8202036 Z M14.6846656,8.80756823 C14.2709225,9.0574738 13.8819635,9.29259057 13.5392851,9.49963369 C13.6369042,9.98039484 13.7423631,10.5007599 13.8278431,10.9216139 C14.297224,10.9762572 14.7757093,11.0319032 15.1950162,11.0805308 C15.3492847,10.6516557 15.5159453,10.1884406 15.6757776,9.74402479 C15.3654702,9.45075547 15.0131816,9.11813292 14.6846656,8.80756823 Z M10.054334,17.2745292 C10.1231226,17.7008976 10.2118902,18.2498376 10.2870012,18.715058 C10.746772,18.6757048 11.2376494,18.6335943 11.7055129,18.5934891 C11.8815308,18.1563424 12.0861262,17.6485102 12.2699839,17.1920628 C11.9212359,16.9140836 11.5322769,16.6042709 11.1966797,16.3365687 C10.8491962,16.6218169 10.4612488,16.9404027 10.054334,17.2745292 Z M4.97586498,22.7722009 C4.5864002,23.2028305 4.16507012,23.6685522 3.81354022,24.0575727 C3.90458394,24.5328194 3.99132836,24.9870109 4.05733506,25.3311637 C4.55681099,25.167735 5.07727756,24.9972878 5.45283289,24.8744657 C5.6731081,24.2874257 5.87416297,23.7515199 6.04486993,23.2968271 C5.69814512,23.1266307 5.32284269,22.9423974 4.97586498,22.7722009 Z M20.8877773,15.8309924 C20.5693772,15.4893462 20.1993857,15.092054 19.8969183,14.7677031 C19.4571265,14.9860258 19.0426247,15.1918157 18.6951412,15.3642681 C18.8091988,15.8633272 18.9278085,16.3819377 19.0438892,16.8907725 C19.4950614,16.9647164 20.0114816,17.049188 20.3984174,17.1126044 C20.572412,16.6571596 20.7337617,16.2340497 20.8877773,15.8309924 Z M10.7806605,21.6114058 C10.3618594,21.9312449 9.93091916,22.2603582 9.55460514,22.5478624 C9.64792495,23.0476735 9.74377375,23.5615215 9.82470149,23.9946577 C10.3011636,23.9638268 10.8175838,23.9302387 11.2672386,23.9011624 C11.4546369,23.4216546 11.6617613,22.8910126 11.8203291,22.4854487 C11.4404745,22.1663616 11.0924852,21.8735936 10.7806605,21.6114058 Z M26.767431,25.6377179 C25.6212918,25.495595 24.4625077,25.4081155 23.3424171,25.1534475 C23.1701927,25.1143449 23.1757565,24.3057237 22.9678733,24.2137324 C22.597376,23.8648171 22.2266258,23.5156511 21.8561284,23.1667359 C22.0169723,23.0303782 22.1778162,22.8940205 22.3386601,22.7576628 C21.9345272,22.9892703 21.5301413,23.2208779 21.1093171,23.4620104 C21.709194,24.7273297 21.6092988,24.9080538 20.0873514,24.7559046 C14.1212061,24.1593397 8.23017199,24.4117518 2.45977076,26.1771329 C2.3505183,26.2104703 2.22153971,26.1811434 2,26.1811434 C2.26883186,23.0892827 2.52071947,20.0182265 2.80598978,16.950429 C3.26171415,12.0463143 3.78293942,7.14771403 4.1724042,2.23858618 C4.25434354,1.20788239 4.67339753,0.921631482 5.56764913,0.751184357 C11.6524041,-0.408858721 17.7113633,-0.121855842 23.7796798,0.90759466 C33.40907,2.54062851 42.5000379,6.00747289 51.7913019,8.81057612 C58.3765443,10.7970371 65.0530834,12.5248195 71.7619936,14.0540811 C76.2767503,15.0830303 80.9278196,15.2143749 85.5495526,14.4513733 C86.2503363,14.3355695 86.838327,14.3563741 86.8337748,15.5191744 C85.5432302,15.7655708 84.2180383,16.1468209 82.87135,16.2495905 C79.9544106,16.4721744 77.0048471,16.839137 74.1086454,16.6218169 C70.017242,16.3147614 65.8633725,15.9041844 61.9123282,14.8739819 C54.5575134,12.9559505 47.3294011,10.5596644 40.0489387,8.36139782 C39.0158455,8.04932918 37.9842696,7.7322474 36.7493628,7.35575978 C36.7493628,8.4689299 36.6874025,9.38633648 36.7850216,10.2866984 C36.816634,10.5762078 37.2225372,10.9637244 37.5361322,11.0639874 C41.6513081,12.3804408 45.769013,13.6923823 49.9099847,14.9261187 C53.9652235,16.1340374 58.0133811,17.3945941 62.1280512,18.3696519 C66.6089194,19.4316879 71.1350565,20.3942128 75.6950821,21.0093264 C78.570799,21.3973443 81.5464111,21.1171092 84.4739723,21.0333896 C85.4071704,21.0065692 86.3307583,20.6483796 87.2583926,20.4420884 C87.6200385,22.1019426 87.5590897,22.3032206 86.0285437,22.6275715 C81.717118,23.5407169 77.3224885,23.8856217 72.9602301,23.4359421 C68.3741558,22.9629513 63.767091,22.3145002 59.2945685,21.2326623 C54.1311253,19.9838865 49.1047536,18.1781496 44.0192034,16.6132946 C41.6682524,15.8901476 39.31806,15.1649953 36.9112183,14.4232997 C36.8161282,14.7027828 36.736212,14.8486655 36.7190149,15.0015666 C36.430204,17.5582735 36.4173061,17.6036425 38.8696697,18.3942164 C43.3786097,19.8477794 47.9108164,21.231409 52.4268376,22.6641675 C59.8165524,25.0085674 67.3430858,26.7681833 75.0491775,27.6803261 C77.2129832,27.9362475 79.4283802,27.9445192 81.6083714,27.8359844 C83.7787524,27.727951 85.9344652,27.3299069 88.1470804,27.0529303 L88.1470804,29.0569373 C85.4413118,29.4577387 82.720875,30.0367576 79.9728722,30.2322705 C73.8413309,30.6686653 67.7365969,30.1605824 61.7962474,28.6303182 C55.4937463,27.006308 49.2777366,25.0519312 43.0260682,23.2351654 C40.9356034,22.6275715 38.8512081,21.9986717 36.7278663,21.3687694 C36.6874025,21.4690324 36.6143146,21.5707993 36.6087508,21.6760755 C36.4539765,24.7225672 36.4423431,24.7659309 39.4088508,25.6241823 C47.0390728,27.8314726 54.6447636,30.1362687 62.3311293,32.1332572 C68.1505929,33.6449729 74.074504,34.8832211 80.1395328,34.7894752 C82.8131832,34.747866 85.4794996,34.2219865 88.1488507,33.9146804 C88.3883463,33.887108 88.6270831,33.8500107 88.8673374,33.8171746 C89.221902,34.9346059 88.8713837,35.4176229 87.7477526,35.690589 C81.2242175,37.2749953 74.661483,37.2885308 68.0436166,36.4377991 C57.8808619,35.131372 48.2502072,31.8023893 38.4928499,28.9398802 C34.9846321,27.9106804 31.429375,27.0396455 27.8994079,26.0828856 C27.5084257,25.9768575 27.1419748,25.7823473 26.7666723,25.6314514 C27.3893102,25.6342086 28.0091661,25.6342086 28.6429316,25.6342086 C28.7633116,25.2973249 28.9302251,24.8311019 29.0619855,24.4623847 C28.6907295,24.1623476 28.3139097,23.857548 28.0293981,23.6274444 C27.6159079,23.8675743 27.2277076,24.0929155 26.8397602,24.3185072 C26.9469895,24.3591138 27.0542187,24.3999709 27.161448,24.4405775 L26.767431,25.6377179 Z" id="Fill-4" fill="#231F20"></path>
                <path d="M89.9117515,45.6388181 C90.155927,46.5823781 89.9019644,46.9468401 89.0427076,47.1540833 C80.5753639,49.1976829 72.0274648,49.4113331 63.4005162,48.4446092 C53.9426682,47.3849832 44.8486994,44.7095507 35.6385402,42.5456958 C28.4758916,40.8628618 21.27811,39.4545449 13.8514608,39.6864305 C9.82068296,39.8121071 5.8774871,40.4385186 2.00104425,41.5080016 C1.724747,41.5841468 1.44443454,41.6464922 1,41.7559048 C1.09862381,40.540292 1.13375698,39.4101885 1.32171941,38.3054668 C1.36563587,38.0472137 1.904679,37.7446042 2.2562616,37.6822588 C5.45287771,37.1164678 8.64020862,36.3454051 11.8654332,36.1199265 C18.9681044,35.6231344 25.9530795,36.726624 32.8286398,38.3811191 C42.0701679,40.6051016 51.2572396,43.0474164 60.502532,45.2548884 C65.9072675,46.5454144 71.4209158,47.2832098 76.9975529,47.3487587 C81.3618448,47.4000151 85.6546157,46.7960282 89.9117515,45.6388181" id="Fill-6" fill="#231F20"></path>
                <path d="M90,42.2046063 C86.6607945,43.1754679 83.3806344,43.6821983 80.0424339,43.8867727 C70.1336116,44.4933135 60.5742878,42.5847779 51.0963713,40.0313128 C43.6822798,38.0338641 36.2887914,35.9425489 28.8186695,34.1697358 C20.0719109,32.0940238 11.2736446,31.8562617 2.547489,34.4825415 C2.4020112,34.5261312 2.24045295,34.5169674 2,34.541239 C2.0934676,33.4153367 2.12537724,32.3451599 2.3067848,31.3002453 C2.35577991,31.0176553 2.8203541,30.6872651 3.15754099,30.5884453 C8.48192805,29.0266459 13.9279235,28.7311771 19.4289442,29.2081872 C29.9224415,30.1181223 39.8566408,33.3814061 49.8584281,36.3331226 C56.8217646,38.3880305 63.7230406,40.6455314 70.9235636,41.8236918 C76.691168,42.7675575 82.4127924,42.7417999 88.1027584,41.3362796 C89.1550227,41.0762274 89.1540177,41.0730077 90,42.2046063" id="Fill-8" fill="#231F20"></path>
            </g>
        </g>
    </g>
</svg>