<?xml version="1.0" encoding="UTF-8"?>
<svg width="177px" height="28px" viewBox="0 0 177 28" version="1.1" xmlns="http://www.w3.org/2000/svg" xmlns:xlink="http://www.w3.org/1999/xlink">
    <!-- Generator: Sketch 52.6 (67491) - http://www.bohemiancoding.com/sketch -->
    <title>Group 5</title>
    <desc>Created with Sketch.</desc>
    <defs>
        <linearGradient x1="50%" y1="0%" x2="50%" y2="100%" id="linearGradient-1">
            <stop stop-color="#FCB73C" offset="0%"></stop>
            <stop stop-color="#F8E71C" offset="100%"></stop>
        </linearGradient>
    </defs>
    <g id="Page-1" stroke="none" stroke-width="1" fill="none" fill-rule="evenodd">
        <g id="Desktop-HD-Copy-8" transform="translate(-793.000000, -575.000000)">
            <g id="Group-5" transform="translate(793.000000, 575.000000)">
                <g id="Group-4">
                    <path d="M28.4435954,10.4089269 C25.1956046,9.45279547 21.5925176,9.45279547 18.2431018,9.30205435 C17.481871,6.33316601 16.7206401,3.36427767 15.7563419,0.4459239 C15.6039797,-0.00700391482 14.8937585,-0.208337114 14.6400149,0.294852116 C13.1682294,3.36423454 11.7474826,6.53447045 10.2756971,9.60385287 C7.12942123,9.45278109 3.88143038,9.35225826 0.785685702,8.94959186 C0.0244548383,8.84906903 -0.229288783,9.85547624 0.227507734,10.308059 C1.85132191,12.0189743 3.32310741,13.8303836 4.84556914,15.5915459 C5.20069421,15.9942123 5.65747623,16.849519 6.11428725,17.2016077 C5.55610928,18.3084802 5.6068,20.2709901 5.40374711,21.4787162 C5.15000349,23.0887779 4.89625987,24.6489521 4.59184002,26.2590138 C4.49045857,26.9132749 5.15001799,27.617481 5.8098819,27.2151453 C7.6874397,26.0576663 9.51468376,24.7996932 11.3922416,23.5923266 C12.1534724,23.0891373 13.0160557,22.6361951 13.7266104,22.0827589 C13.7266104,22.0827589 13.8789725,21.982236 13.980354,21.9316871 C14.3354791,22.2335431 14.9446523,22.5353992 15.0966809,22.6864709 C15.8579118,23.290183 16.6698189,23.8439499 17.4310498,24.3973862 C18.9535115,25.5042587 20.4759732,26.6617377 21.9984349,27.8192167 C22.4552314,28.1713342 23.4702204,28.0205499 23.3685055,27.2657661 C23.1654526,25.5548508 22.7086561,23.8439356 22.3028548,22.1836268 C21.9477297,20.8251596 21.7953675,19.0639973 21.2372041,17.7051707 C21.3895662,17.6046479 21.6433099,17.3530533 21.6940006,17.3025043 C22.4552314,16.6987923 23.1657861,16.0947783 23.9270169,15.491095 C25.5508311,14.1828749 27.1750078,12.8746548 28.798822,11.5660752 C29.204645,11.2642192 28.9509014,10.5596968 28.4434142,10.4088838 L28.4435954,10.4089269 Z" id="Shape" fill="#000000" fill-rule="nonzero"></path>
                    <path d="M19.9852437,16.3540752 C19.7826745,16.50719 19.7321045,16.8640692 19.7826745,17.1190661 C20.4409522,19.6690359 21.2509544,22.3208587 21.7066774,24.972973 C19.4284242,23.1370676 17.04906,21.4030153 14.6693341,19.668963 C14.4667649,19.5158483 14.0619156,19.5158483 13.8088053,19.668963 C11.4799966,21.2498714 9.15118793,22.7798533 6.77146207,24.3098351 C6.97403133,23.1879941 7.17660058,22.0657889 7.32831055,20.9439479 C7.5308798,19.668963 8.08772827,18.0371281 7.9865883,16.7108524 C7.93601686,15.741791 7.17661505,15.0790175 6.51830837,14.3140265 C5.3537232,12.8858978 4.18949966,11.5090598 2.97435897,10.1322219 C5.5057514,10.3362777 8.08769934,10.3872188 10.6191641,10.5403336 C11.2265826,10.5912762 11.4796929,9.92845742 11.2774418,9.46941915 C12.5431381,6.81759632 13.9099453,4.1654092 15.1756415,1.51351351 C15.9350592,4.11440981 16.5933659,6.81752346 17.251311,9.46941915 C17.3018824,9.77535723 17.6055902,9.92847199 17.8587294,9.92847199 C20.7443722,10.0815867 23.8835157,10.1325279 26.7692308,10.795316 C24.5923779,12.6821479 22.3141248,14.5181261 19.9853161,16.3540315 L19.9852437,16.3540752 Z" id="Path" fill="url(#linearGradient-1)"></path>
                </g>
                <g id="Group-4-Copy-2" transform="translate(74.000000, 0.000000)">
                    <path d="M28.4435954,10.4089269 C25.1956046,9.45279547 21.5925176,9.45279547 18.2431018,9.30205435 C17.481871,6.33316601 16.7206401,3.36427767 15.7563419,0.4459239 C15.6039797,-0.00700391482 14.8937585,-0.208337114 14.6400149,0.294852116 C13.1682294,3.36423454 11.7474826,6.53447045 10.2756971,9.60385287 C7.12942123,9.45278109 3.88143038,9.35225826 0.785685702,8.94959186 C0.0244548383,8.84906903 -0.229288783,9.85547624 0.227507734,10.308059 C1.85132191,12.0189743 3.32310741,13.8303836 4.84556914,15.5915459 C5.20069421,15.9942123 5.65747623,16.849519 6.11428725,17.2016077 C5.55610928,18.3084802 5.6068,20.2709901 5.40374711,21.4787162 C5.15000349,23.0887779 4.89625987,24.6489521 4.59184002,26.2590138 C4.49045857,26.9132749 5.15001799,27.617481 5.8098819,27.2151453 C7.6874397,26.0576663 9.51468376,24.7996932 11.3922416,23.5923266 C12.1534724,23.0891373 13.0160557,22.6361951 13.7266104,22.0827589 C13.7266104,22.0827589 13.8789725,21.982236 13.980354,21.9316871 C14.3354791,22.2335431 14.9446523,22.5353992 15.0966809,22.6864709 C15.8579118,23.290183 16.6698189,23.8439499 17.4310498,24.3973862 C18.9535115,25.5042587 20.4759732,26.6617377 21.9984349,27.8192167 C22.4552314,28.1713342 23.4702204,28.0205499 23.3685055,27.2657661 C23.1654526,25.5548508 22.7086561,23.8439356 22.3028548,22.1836268 C21.9477297,20.8251596 21.7953675,19.0639973 21.2372041,17.7051707 C21.3895662,17.6046479 21.6433099,17.3530533 21.6940006,17.3025043 C22.4552314,16.6987923 23.1657861,16.0947783 23.9270169,15.491095 C25.5508311,14.1828749 27.1750078,12.8746548 28.798822,11.5660752 C29.204645,11.2642192 28.9509014,10.5596968 28.4434142,10.4088838 L28.4435954,10.4089269 Z" id="Shape" fill="#000000" fill-rule="nonzero"></path>
                    <path d="M19.9852437,16.3540752 C19.7826745,16.50719 19.7321045,16.8640692 19.7826745,17.1190661 C20.4409522,19.6690359 21.2509544,22.3208587 21.7066774,24.972973 C19.4284242,23.1370676 17.04906,21.4030153 14.6693341,19.668963 C14.4667649,19.5158483 14.0619156,19.5158483 13.8088053,19.668963 C11.4799966,21.2498714 9.15118793,22.7798533 6.77146207,24.3098351 C6.97403133,23.1879941 7.17660058,22.0657889 7.32831055,20.9439479 C7.5308798,19.668963 8.08772827,18.0371281 7.9865883,16.7108524 C7.93601686,15.741791 7.17661505,15.0790175 6.51830837,14.3140265 C5.3537232,12.8858978 4.18949966,11.5090598 2.97435897,10.1322219 C5.5057514,10.3362777 8.08769934,10.3872188 10.6191641,10.5403336 C11.2265826,10.5912762 11.4796929,9.92845742 11.2774418,9.46941915 C12.5431381,6.81759632 13.9099453,4.1654092 15.1756415,1.51351351 C15.9350592,4.11440981 16.5933659,6.81752346 17.251311,9.46941915 C17.3018824,9.77535723 17.6055902,9.92847199 17.8587294,9.92847199 C20.7443722,10.0815867 23.8835157,10.1325279 26.7692308,10.795316 C24.5923779,12.6821479 22.3141248,14.5181261 19.9853161,16.3540315 L19.9852437,16.3540752 Z" id="Path" fill="url(#linearGradient-1)"></path>
                </g>
                <g id="Group-4-Copy" transform="translate(37.000000, 0.000000)">
                    <path d="M28.4435954,10.4089269 C25.1956046,9.45279547 21.5925176,9.45279547 18.2431018,9.30205435 C17.481871,6.33316601 16.7206401,3.36427767 15.7563419,0.4459239 C15.6039797,-0.00700391482 14.8937585,-0.208337114 14.6400149,0.294852116 C13.1682294,3.36423454 11.7474826,6.53447045 10.2756971,9.60385287 C7.12942123,9.45278109 3.88143038,9.35225826 0.785685702,8.94959186 C0.0244548383,8.84906903 -0.229288783,9.85547624 0.227507734,10.308059 C1.85132191,12.0189743 3.32310741,13.8303836 4.84556914,15.5915459 C5.20069421,15.9942123 5.65747623,16.849519 6.11428725,17.2016077 C5.55610928,18.3084802 5.6068,20.2709901 5.40374711,21.4787162 C5.15000349,23.0887779 4.89625987,24.6489521 4.59184002,26.2590138 C4.49045857,26.9132749 5.15001799,27.617481 5.8098819,27.2151453 C7.6874397,26.0576663 9.51468376,24.7996932 11.3922416,23.5923266 C12.1534724,23.0891373 13.0160557,22.6361951 13.7266104,22.0827589 C13.7266104,22.0827589 13.8789725,21.982236 13.980354,21.9316871 C14.3354791,22.2335431 14.9446523,22.5353992 15.0966809,22.6864709 C15.8579118,23.290183 16.6698189,23.8439499 17.4310498,24.3973862 C18.9535115,25.5042587 20.4759732,26.6617377 21.9984349,27.8192167 C22.4552314,28.1713342 23.4702204,28.0205499 23.3685055,27.2657661 C23.1654526,25.5548508 22.7086561,23.8439356 22.3028548,22.1836268 C21.9477297,20.8251596 21.7953675,19.0639973 21.2372041,17.7051707 C21.3895662,17.6046479 21.6433099,17.3530533 21.6940006,17.3025043 C22.4552314,16.6987923 23.1657861,16.0947783 23.9270169,15.491095 C25.5508311,14.1828749 27.1750078,12.8746548 28.798822,11.5660752 C29.204645,11.2642192 28.9509014,10.5596968 28.4434142,10.4088838 L28.4435954,10.4089269 Z" id="Shape" fill="#000000" fill-rule="nonzero"></path>
                    <path d="M19.9852437,16.3540752 C19.7826745,16.50719 19.7321045,16.8640692 19.7826745,17.1190661 C20.4409522,19.6690359 21.2509544,22.3208587 21.7066774,24.972973 C19.4284242,23.1370676 17.04906,21.4030153 14.6693341,19.668963 C14.4667649,19.5158483 14.0619156,19.5158483 13.8088053,19.668963 C11.4799966,21.2498714 9.15118793,22.7798533 6.77146207,24.3098351 C6.97403133,23.1879941 7.17660058,22.0657889 7.32831055,20.9439479 C7.5308798,19.668963 8.08772827,18.0371281 7.9865883,16.7108524 C7.93601686,15.741791 7.17661505,15.0790175 6.51830837,14.3140265 C5.3537232,12.8858978 4.18949966,11.5090598 2.97435897,10.1322219 C5.5057514,10.3362777 8.08769934,10.3872188 10.6191641,10.5403336 C11.2265826,10.5912762 11.4796929,9.92845742 11.2774418,9.46941915 C12.5431381,6.81759632 13.9099453,4.1654092 15.1756415,1.51351351 C15.9350592,4.11440981 16.5933659,6.81752346 17.251311,9.46941915 C17.3018824,9.77535723 17.6055902,9.92847199 17.8587294,9.92847199 C20.7443722,10.0815867 23.8835157,10.1325279 26.7692308,10.795316 C24.5923779,12.6821479 22.3141248,14.5181261 19.9853161,16.3540315 L19.9852437,16.3540752 Z" id="Path" fill="url(#linearGradient-1)"></path>
                </g>
                <g id="Group-4-Copy-3" transform="translate(111.000000, 0.000000)">
                    <path d="M28.4435954,10.4089269 C25.1956046,9.45279547 21.5925176,9.45279547 18.2431018,9.30205435 C17.481871,6.33316601 16.7206401,3.36427767 15.7563419,0.4459239 C15.6039797,-0.00700391482 14.8937585,-0.208337114 14.6400149,0.294852116 C13.1682294,3.36423454 11.7474826,6.53447045 10.2756971,9.60385287 C7.12942123,9.45278109 3.88143038,9.35225826 0.785685702,8.94959186 C0.0244548383,8.84906903 -0.229288783,9.85547624 0.227507734,10.308059 C1.85132191,12.0189743 3.32310741,13.8303836 4.84556914,15.5915459 C5.20069421,15.9942123 5.65747623,16.849519 6.11428725,17.2016077 C5.55610928,18.3084802 5.6068,20.2709901 5.40374711,21.4787162 C5.15000349,23.0887779 4.89625987,24.6489521 4.59184002,26.2590138 C4.49045857,26.9132749 5.15001799,27.617481 5.8098819,27.2151453 C7.6874397,26.0576663 9.51468376,24.7996932 11.3922416,23.5923266 C12.1534724,23.0891373 13.0160557,22.6361951 13.7266104,22.0827589 C13.7266104,22.0827589 13.8789725,21.982236 13.980354,21.9316871 C14.3354791,22.2335431 14.9446523,22.5353992 15.0966809,22.6864709 C15.8579118,23.290183 16.6698189,23.8439499 17.4310498,24.3973862 C18.9535115,25.5042587 20.4759732,26.6617377 21.9984349,27.8192167 C22.4552314,28.1713342 23.4702204,28.0205499 23.3685055,27.2657661 C23.1654526,25.5548508 22.7086561,23.8439356 22.3028548,22.1836268 C21.9477297,20.8251596 21.7953675,19.0639973 21.2372041,17.7051707 C21.3895662,17.6046479 21.6433099,17.3530533 21.6940006,17.3025043 C22.4552314,16.6987923 23.1657861,16.0947783 23.9270169,15.491095 C25.5508311,14.1828749 27.1750078,12.8746548 28.798822,11.5660752 C29.204645,11.2642192 28.9509014,10.5596968 28.4434142,10.4088838 L28.4435954,10.4089269 Z" id="Shape" fill="#000000" fill-rule="nonzero"></path>
                    <path d="M19.9852437,16.3540752 C19.7826745,16.50719 19.7321045,16.8640692 19.7826745,17.1190661 C20.4409522,19.6690359 21.2509544,22.3208587 21.7066774,24.972973 C19.4284242,23.1370676 17.04906,21.4030153 14.6693341,19.668963 C14.4667649,19.5158483 14.0619156,19.5158483 13.8088053,19.668963 C11.4799966,21.2498714 9.15118793,22.7798533 6.77146207,24.3098351 C6.97403133,23.1879941 7.17660058,22.0657889 7.32831055,20.9439479 C7.5308798,19.668963 8.08772827,18.0371281 7.9865883,16.7108524 C7.93601686,15.741791 7.17661505,15.0790175 6.51830837,14.3140265 C5.3537232,12.8858978 4.18949966,11.5090598 2.97435897,10.1322219 C5.5057514,10.3362777 8.08769934,10.3872188 10.6191641,10.5403336 C11.2265826,10.5912762 11.4796929,9.92845742 11.2774418,9.46941915 C12.5431381,6.81759632 13.9099453,4.1654092 15.1756415,1.51351351 C15.9350592,4.11440981 16.5933659,6.81752346 17.251311,9.46941915 C17.3018824,9.77535723 17.6055902,9.92847199 17.8587294,9.92847199 C20.7443722,10.0815867 23.8835157,10.1325279 26.7692308,10.795316 C24.5923779,12.6821479 22.3141248,14.5181261 19.9853161,16.3540315 L19.9852437,16.3540752 Z" id="Path" fill="url(#linearGradient-1)"></path>
                </g>
                <g id="Group-4-Copy-4" transform="translate(148.000000, 0.000000)">
                    <path d="M28.4435954,10.4089269 C25.1956046,9.45279547 21.5925176,9.45279547 18.2431018,9.30205435 C17.481871,6.33316601 16.7206401,3.36427767 15.7563419,0.4459239 C15.6039797,-0.00700391482 14.8937585,-0.208337114 14.6400149,0.294852116 C13.1682294,3.36423454 11.7474826,6.53447045 10.2756971,9.60385287 C7.12942123,9.45278109 3.88143038,9.35225826 0.785685702,8.94959186 C0.0244548383,8.84906903 -0.229288783,9.85547624 0.227507734,10.308059 C1.85132191,12.0189743 3.32310741,13.8303836 4.84556914,15.5915459 C5.20069421,15.9942123 5.65747623,16.849519 6.11428725,17.2016077 C5.55610928,18.3084802 5.6068,20.2709901 5.40374711,21.4787162 C5.15000349,23.0887779 4.89625987,24.6489521 4.59184002,26.2590138 C4.49045857,26.9132749 5.15001799,27.617481 5.8098819,27.2151453 C7.6874397,26.0576663 9.51468376,24.7996932 11.3922416,23.5923266 C12.1534724,23.0891373 13.0160557,22.6361951 13.7266104,22.0827589 C13.7266104,22.0827589 13.8789725,21.982236 13.980354,21.9316871 C14.3354791,22.2335431 14.9446523,22.5353992 15.0966809,22.6864709 C15.8579118,23.290183 16.6698189,23.8439499 17.4310498,24.3973862 C18.9535115,25.5042587 20.4759732,26.6617377 21.9984349,27.8192167 C22.4552314,28.1713342 23.4702204,28.0205499 23.3685055,27.2657661 C23.1654526,25.5548508 22.7086561,23.8439356 22.3028548,22.1836268 C21.9477297,20.8251596 21.7953675,19.0639973 21.2372041,17.7051707 C21.3895662,17.6046479 21.6433099,17.3530533 21.6940006,17.3025043 C22.4552314,16.6987923 23.1657861,16.0947783 23.9270169,15.491095 C25.5508311,14.1828749 27.1750078,12.8746548 28.798822,11.5660752 C29.204645,11.2642192 28.9509014,10.5596968 28.4434142,10.4088838 L28.4435954,10.4089269 Z" id="Shape" fill="#000000" fill-rule="nonzero"></path>
                    <path d="M19.9852437,16.3540752 C19.7826745,16.50719 19.7321045,16.8640692 19.7826745,17.1190661 C20.4409522,19.6690359 21.2509544,22.3208587 21.7066774,24.972973 C19.4284242,23.1370676 17.04906,21.4030153 14.6693341,19.668963 C14.4667649,19.5158483 14.0619156,19.5158483 13.8088053,19.668963 C11.4799966,21.2498714 9.15118793,22.7798533 6.77146207,24.3098351 C6.97403133,23.1879941 7.17660058,22.0657889 7.32831055,20.9439479 C7.5308798,19.668963 8.08772827,18.0371281 7.9865883,16.7108524 C7.93601686,15.741791 7.17661505,15.0790175 6.51830837,14.3140265 C5.3537232,12.8858978 4.18949966,11.5090598 2.97435897,10.1322219 C5.5057514,10.3362777 8.08769934,10.3872188 10.6191641,10.5403336 C11.2265826,10.5912762 11.4796929,9.92845742 11.2774418,9.46941915 C12.5431381,6.81759632 13.9099453,4.1654092 15.1756415,1.51351351 C15.9350592,4.11440981 16.5933659,6.81752346 17.251311,9.46941915 C17.3018824,9.77535723 17.6055902,9.92847199 17.8587294,9.92847199 C20.7443722,10.0815867 23.8835157,10.1325279 26.7692308,10.795316 C24.5923779,12.6821479 22.3141248,14.5181261 19.9853161,16.3540315 L19.9852437,16.3540752 Z" id="Path" fill="url(#linearGradient-1)"></path>
                </g>
            </g>
        </g>
    </g>
</svg>