<?xml version="1.0" encoding="UTF-8"?>
<svg width="67px" height="70px" viewBox="0 0 67 70" version="1.1" xmlns="http://www.w3.org/2000/svg" xmlns:xlink="http://www.w3.org/1999/xlink">
    <!-- Generator: Sketch 52.6 (67491) - http://www.bohemiancoding.com/sketch -->
    <title>Group 3</title>
    <desc>Created with Sketch.</desc>
    <g id="Page-1" stroke="none" stroke-width="1" fill="none" fill-rule="evenodd">
        <g id="Desktop-HD-Copy-8" transform="translate(-569.000000, -411.000000)">
            <g id="Group-3" transform="translate(569.000000, 411.000000)">
                <path d="M34.0062278,8 C19.1070905,8 7,20.1090834 7,35.0062278 C7,49.891664 19.1090834,62 34.0062278,62 C48.891664,62 61,49.8909166 61,35.0062278 C61,20.121539 48.8782119,8 34.0062278,8 Z" id="Path-Copy" fill="#FFFFFF"></path>
                <path d="M33.5049592,13 C21.6408313,13 12,22.6424182 12,34.5049592 C12,46.3581769 21.6424182,56 33.5049592,56 C45.3581769,56 55,46.3575818 55,34.5049592 C55,22.6523366 45.3474651,13 33.5049592,13 Z" id="Path" fill="#8ABEF6"></path>
                <path d="M66.7443906,24.1849486 C65.652716,20.8164657 61.2192833,19.120073 59.1812572,16.3205071 C57.1207544,13.4872763 56.8751013,8.74630084 54.0462113,6.68258213 C51.2505392,4.65252833 46.6726386,5.85699505 43.3082844,4.76372214 C40.4123619,3.81518841 37.7278802,0.758793115 34.6308603,0.122944648 C34.2633354,0.0451308987 33.8841742,0 33.5057888,0 C33.1274034,0.00077807773 32.7482223,0.0560251821 32.3807172,0.122944648 C29.2727573,0.758673595 26.5882756,3.81512865 23.6923532,4.76372214 C20.3287946,5.85699505 15.7616351,4.65245065 12.9544263,6.68258213 C10.1253374,8.74610164 9.87988315,13.4872763 7.81938033,16.3205071 C5.78135426,19.1202722 1.34786189,20.8156689 0.256246914,24.1849486 C-0.802010948,27.4422776 1.75972376,31.4019881 1.75972376,35.0055278 C1.75972376,38.6090675 -0.802030839,42.5689772 0.256246914,45.826107 C1.34792156,49.1945899 5.78135426,50.8792298 7.81938033,53.6905486 C9.87988315,56.5237794 10.1255363,61.253998 12.9544263,63.3175175 C13.0103696,63.3618715 13.0655351,63.3953292 13.1323567,63.428789 C13.3328177,63.5735202 13.5441589,63.6964748 13.7671563,63.796852 C13.9784976,63.8972312 14.2014949,63.9867141 14.4353727,64.0645378 C17.197628,65.0348641 20.8734743,64.3322237 23.6916232,65.2472917 C24.5937172,65.537527 25.4623746,66.0285367 26.3317481,66.5973342 C26.5881622,66.7537386 26.8329004,66.9210353 27.0784342,67.088324 C27.3231923,67.2447284 27.5687062,67.412025 27.8134642,67.5793137 C29.6176325,68.8064296 31.4558938,70 33.5056555,70 C35.2430101,70 36.8357973,69.1300509 38.3960429,68.1037094 C38.7410314,67.8803856 39.0976561,67.6461655 39.4434204,67.401069 C39.7549921,67.2003146 40.0673396,66.9886639 40.3789113,66.7879095 C41.3478191,66.1412843 42.3167268,65.5716899 43.3082506,65.2487658 C45.8924819,64.4122824 49.1892069,64.9250647 51.8404708,64.2784395 C52.0743485,64.2224143 52.3082262,64.167168 52.5312235,64.0776851 C52.7651013,64.0107656 52.9880986,63.9212807 53.2103202,63.8099992 C53.5001313,63.6761603 53.7783061,63.5088676 54.0455807,63.3190095 C56.8746696,61.25549 57.1201239,56.5252714 59.1806267,53.6920406 C61.2186528,50.8807218 65.6521451,49.1968788 66.7437601,45.827599 C67.802018,42.57027 65.2402833,38.6105595 65.2402833,35.0070198 C65.2410602,31.4136393 67.7918935,27.4419768 66.7445358,24.184847 L66.7443906,24.1849486 Z M33.5046351,60.1386735 C19.6368683,60.1386735 8.39828634,48.8830401 8.39828634,35.0055278 C8.39828634,21.1174579 19.637465,9.86242207 33.5046351,9.86242207 C47.3614619,9.86242207 58.6010384,21.1180555 58.6010384,35.0055278 C58.6010384,48.8826417 47.3509197,60.1386735 33.5046351,60.1386735 Z" id="Shape" fill="#8ABEF6" fill-rule="nonzero"></path>
                <path d="M20.9359518,37.5329278 L28.8852498,44.2907333 C30.0446795,45.2786013 31.8397825,45.2264618 32.9298883,44.1848525 L47.1108023,31.6161312 C48.2645753,30.588948 48.3001801,28.8907691 47.1905249,27.8231311 C46.0808975,26.7550824 44.2464185,26.722123 43.0930893,27.7493318 L30.8088794,38.6372267 L24.8634327,33.5827341 C23.6853687,32.5788279 21.850446,32.6494185 20.7659971,33.7403642 C19.6815149,34.8313099 19.7577713,36.5294888 20.936279,37.5330562 L20.9359518,37.5329278 Z" id="Shape" fill="#FFFFFF" fill-rule="nonzero"></path>
            </g>
        </g>
    </g>
</svg>